<?xml version="1.0" encoding="UTF-8" standalone="no"?>
<svg
   xmlns:dc="http://purl.org/dc/elements/1.1/"
   xmlns:cc="http://creativecommons.org/ns#"
   xmlns:rdf="http://www.w3.org/1999/02/22-rdf-syntax-ns#"
   xmlns:svg="http://www.w3.org/2000/svg"
   xmlns="http://www.w3.org/2000/svg"
   xmlns:sodipodi="http://sodipodi.sourceforge.net/DTD/sodipodi-0.dtd"
   xmlns:inkscape="http://www.inkscape.org/namespaces/inkscape"
   inkscape:version="1.0 (4035a4fb49, 2020-05-01)"
   height="448"
   width="448"
   sodipodi:docname="add_animation_key.bw.svg"
   id="svg4"
   version="1.1"
   viewBox="0 0 448 448">
  <metadata
     id="metadata10">
    <rdf:RDF>
      <cc:Work
         rdf:about="">
        <dc:format>image/svg+xml</dc:format>
        <dc:type
           rdf:resource="http://purl.org/dc/dcmitype/StillImage" />
        <dc:title></dc:title>
      </cc:Work>
    </rdf:RDF>
  </metadata>
  <defs
     id="defs8" />
  <sodipodi:namedview
     inkscape:current-layer="svg4"
     inkscape:window-maximized="1"
     inkscape:window-y="-8"
     inkscape:window-x="-8"
     inkscape:cy="224"
     inkscape:cx="89.904762"
     inkscape:zoom="1.4355469"
     fit-margin-bottom="0"
     fit-margin-right="0"
     fit-margin-left="0"
     fit-margin-top="0"
     showgrid="false"
     id="namedview6"
     inkscape:window-height="1122"
     inkscape:window-width="1920"
     inkscape:pageshadow="2"
     inkscape:pageopacity="0"
     guidetolerance="10"
     gridtolerance="10"
     objecttolerance="10"
     borderopacity="1"
     bordercolor="#666666"
     pagecolor="#ffffff" />
  <path
     style="fill:#d9d9d9;fill-opacity:1;stroke-width:0.804082"
     id="path2"
     d="m 404.11429,254.71592 v -61.43184 c 0,-10.69428 -8.60368,-19.29796 -19.29796,-19.29796 H 274.01388 V 63.183673 c 0,-10.694285 -8.60368,-19.297959 -19.29796,-19.297959 h -61.43184 c -10.69428,0 -19.29796,8.603674 -19.29796,19.297959 V 173.98612 H 63.183673 c -10.694285,0 -19.297959,8.60368 -19.297959,19.29796 v 61.43184 c 0,10.69428 8.603674,19.29796 19.297959,19.29796 H 173.98612 v 110.80245 c 0,10.69428 8.60368,19.29796 19.29796,19.29796 h 61.43184 c 10.69428,0 19.29796,-8.60368 19.29796,-19.29796 V 274.01388 h 110.80245 c 10.69428,0 19.29796,-8.60368 19.29796,-19.29796 z" />
</svg>
