<?xml version="1.0" encoding="UTF-8" standalone="no"?>
<svg
   xmlns:dc="http://purl.org/dc/elements/1.1/"
   xmlns:cc="http://creativecommons.org/ns#"
   xmlns:rdf="http://www.w3.org/1999/02/22-rdf-syntax-ns#"
   xmlns:svg="http://www.w3.org/2000/svg"
   xmlns="http://www.w3.org/2000/svg"
   xmlns:sodipodi="http://sodipodi.sourceforge.net/DTD/sodipodi-0.dtd"
   xmlns:inkscape="http://www.inkscape.org/namespaces/inkscape"
   viewBox="0 0 448 448"
   version="1.1"
   id="svg4"
   sodipodi:docname="create_pipeline.svg"
   width="448"
   height="448"
   inkscape:version="1.0 (4035a4fb49, 2020-05-01)">
  <metadata
     id="metadata10">
    <rdf:RDF>
      <cc:Work
         rdf:about="">
        <dc:format>image/svg+xml</dc:format>
        <dc:type
           rdf:resource="http://purl.org/dc/dcmitype/StillImage" />
        <dc:title />
      </cc:Work>
    </rdf:RDF>
  </metadata>
  <defs
     id="defs8" />
  <sodipodi:namedview
     inkscape:document-rotation="0"
     pagecolor="#ffffff"
     bordercolor="#666666"
     borderopacity="1"
     objecttolerance="10"
     gridtolerance="10"
     guidetolerance="10"
     inkscape:pageopacity="0"
     inkscape:pageshadow="2"
     inkscape:window-width="1920"
     inkscape:window-height="1122"
     id="namedview6"
     showgrid="false"
     fit-margin-top="0"
     fit-margin-left="0"
     fit-margin-right="0"
     fit-margin-bottom="0"
     inkscape:zoom="1.4355469"
     inkscape:cx="89.904762"
     inkscape:cy="224"
     inkscape:window-x="-8"
     inkscape:window-y="-8"
     inkscape:window-maximized="1"
     inkscape:current-layer="svg4" />
  <path
     d="m 352.56599,245.9251 v -43.8502 c 0,-7.63359 -6.14132,-13.77492 -13.77492,-13.77492 h -79.09105 v -79.09104 c 0,-7.63361 -6.14132,-13.774928 -13.77492,-13.774928 h -43.8502 c -7.63359,0 -13.77492,6.141318 -13.77492,13.774928 v 79.09104 h -79.09104 c -7.63361,0 -13.774928,6.14133 -13.774928,13.77492 v 43.8502 c 0,7.6336 6.141318,13.77492 13.774928,13.77492 h 79.09104 v 79.09105 c 0,7.6336 6.14133,13.77492 13.77492,13.77492 h 43.8502 c 7.6336,0 13.77492,-6.14132 13.77492,-13.77492 v -79.09105 h 79.09105 c 7.6336,0 13.77492,-6.14132 13.77492,-13.77492 z"
     id="path2"
     style="fill:#d9d9d9;fill-opacity:1;stroke-width:0.573956" />
</svg>
