<?xml version="1.0" encoding="UTF-8" standalone="no"?>
<svg
   xmlns:dc="http://purl.org/dc/elements/1.1/"
   xmlns:cc="http://creativecommons.org/ns#"
   xmlns:rdf="http://www.w3.org/1999/02/22-rdf-syntax-ns#"
   xmlns:svg="http://www.w3.org/2000/svg"
   xmlns="http://www.w3.org/2000/svg"
   xmlns:sodipodi="http://sodipodi.sourceforge.net/DTD/sodipodi-0.dtd"
   xmlns:inkscape="http://www.inkscape.org/namespaces/inkscape"
   inkscape:version="1.0 (4035a4fb49, 2020-05-01)"
   sodipodi:docname="modifier_action_icon.svg"
   id="svg19648"
   version="1.1"
   width="24"
   viewBox="0 0 24 24"
   height="24"
   fill="#000000">
  <metadata
     id="metadata19654">
    <rdf:RDF>
      <cc:Work
         rdf:about="">
        <dc:format>image/svg+xml</dc:format>
        <dc:type
           rdf:resource="http://purl.org/dc/dcmitype/StillImage" />
        <dc:title></dc:title>
      </cc:Work>
    </rdf:RDF>
  </metadata>
  <defs
     id="defs19652" />
  <sodipodi:namedview
     inkscape:document-rotation="0"
     inkscape:current-layer="svg19648"
     inkscape:window-maximized="1"
     inkscape:window-y="-1808"
     inkscape:window-x="-3"
     inkscape:cy="0.86591123"
     inkscape:cx="12"
     inkscape:zoom="27.812867"
     showgrid="false"
     id="namedview19650"
     inkscape:window-height="1722"
     inkscape:window-width="3200"
     inkscape:pageshadow="2"
     inkscape:pageopacity="0"
     guidetolerance="10"
     gridtolerance="10"
     objecttolerance="10"
     borderopacity="1"
     bordercolor="#666666"
     pagecolor="#ffffff" />
  <rect
     ry="1.646184"
     y="6.7282925"
     x="0.69228369"
     height="10.543415"
     width="22.615433"
     id="rect849"
     style="fill:#1fa79d;fill-opacity:1;stroke-width:0.679824" />
  <path
     id="path19646"
     fill="none"
     d="M0 0h24v24H0z" />
  <g
     transform="matrix(1.0901213,0,0,1.0901213,-1.0814558,-1.0814558)"
     style="font-style:normal;font-weight:normal;font-size:7.43584px;line-height:1.25;font-family:sans-serif;fill:#fcfcfc;fill-opacity:1;stroke:none;stroke-width:0.557689"
     id="text847"
     aria-label="Mod">
    <path
       id="path851"
       style="font-style:normal;font-variant:normal;font-weight:bold;font-stretch:normal;font-size:7.43584px;font-family:sans-serif;-inkscape-font-specification:'sans-serif Bold';fill:#fcfcfc;fill-opacity:1;stroke-width:0.557689"
       d="M 9.6436228,14.761209 H 8.2566643 V 11.14132 L 7.2545687,13.490435 H 6.2924116 L 5.290316,11.14132 v 3.619889 H 3.9759732 V 9.3549752 H 5.5953016 L 6.8116134,12.067169 8.0242943,9.3549752 h 1.6193285 z" />
    <path
       id="path853"
       style="font-style:normal;font-variant:normal;font-weight:bold;font-stretch:normal;font-size:7.43584px;font-family:sans-serif;-inkscape-font-specification:'sans-serif Bold';fill:#fcfcfc;fill-opacity:1;stroke-width:0.557689"
       d="m 15.11521,12.72434 q 0,1.005727 -0.588186,1.586652 -0.584556,0.577294 -1.644744,0.577294 -1.060188,0 -1.648375,-0.577294 -0.584556,-0.580925 -0.584556,-1.586652 0,-1.012988 0.588187,-1.590282 0.591817,-0.577294 1.644744,-0.577294 1.06745,0 1.648375,0.580925 0.584555,0.580925 0.584555,1.586651 z m -1.608436,0.991204 q 0.127078,-0.156124 0.188801,-0.373971 0.06535,-0.221478 0.06535,-0.609971 0,-0.359448 -0.06535,-0.60271 -0.06535,-0.243262 -0.181539,-0.388494 -0.116185,-0.148862 -0.27957,-0.210585 -0.163385,-0.06172 -0.352186,-0.06172 -0.188801,0 -0.337663,0.05083 -0.145231,0.05083 -0.27957,0.203324 -0.119816,0.1416 -0.192431,0.388493 -0.06898,0.246893 -0.06898,0.620864 0,0.334032 0.06172,0.580925 0.06172,0.243262 0.181539,0.392124 0.116185,0.141601 0.27594,0.206955 0.163385,0.06535 0.370339,0.06535 0.177909,0 0.337663,-0.05809 0.163385,-0.06172 0.275939,-0.203323 z" />
    <path
       id="path855"
       style="font-style:normal;font-variant:normal;font-weight:bold;font-stretch:normal;font-size:7.43584px;font-family:sans-serif;-inkscape-font-specification:'sans-serif Bold';fill:#fcfcfc;fill-opacity:1;stroke-width:0.557689"
       d="m 20.024027,14.761209 h -1.307081 v -0.424802 q -0.337663,0.27594 -0.631756,0.406648 -0.294094,0.130708 -0.678956,0.130708 -0.744311,0 -1.190897,-0.573664 -0.446586,-0.573663 -0.446586,-1.546713 0,-0.519201 0.148862,-0.918587 0.152493,-0.403017 0.413909,-0.689849 0.246893,-0.272308 0.599079,-0.42117 0.352186,-0.152493 0.704372,-0.152493 0.366709,0 0.599079,0.07988 0.236,0.07625 0.482894,0.196062 V 9.1117128 h 1.307081 z m -1.307081,-1.125543 v -2.00056 q -0.13797,-0.05809 -0.290463,-0.08351 -0.152493,-0.02542 -0.27957,-0.02542 -0.515571,0 -0.773357,0.32314 -0.257785,0.319509 -0.257785,0.889541 0,0.599079 0.206955,0.871388 0.206954,0.268678 0.664433,0.268678 0.177908,0 0.377601,-0.06535 0.199693,-0.06898 0.352186,-0.177909 z" />
  </g>
</svg>
