<?xml version="1.0" encoding="UTF-8" standalone="no"?>
<svg
   fill="#000000"
   height="24"
   viewBox="0 0 24 24"
   width="24"
   version="1.1"
   id="svg9764"
   sodipodi:docname="viewport_vr_mode.svg"
   inkscape:version="1.2.1 (9c6d41e, 2022-07-14)"
   xmlns:inkscape="http://www.inkscape.org/namespaces/inkscape"
   xmlns:sodipodi="http://sodipodi.sourceforge.net/DTD/sodipodi-0.dtd"
   xmlns="http://www.w3.org/2000/svg"
   xmlns:svg="http://www.w3.org/2000/svg"
   xmlns:rdf="http://www.w3.org/1999/02/22-rdf-syntax-ns#"
   xmlns:cc="http://creativecommons.org/ns#"
   xmlns:dc="http://purl.org/dc/elements/1.1/">
  <metadata
     id="metadata9770">
    <rdf:RDF>
      <cc:Work
         rdf:about="">
        <dc:format>image/svg+xml</dc:format>
        <dc:type
           rdf:resource="http://purl.org/dc/dcmitype/StillImage" />
      </cc:Work>
    </rdf:RDF>
  </metadata>
  <defs
     id="defs9768" />
  <sodipodi:namedview
     pagecolor="#ffffff"
     bordercolor="#666666"
     borderopacity="1"
     objecttolerance="10"
     gridtolerance="10"
     guidetolerance="10"
     inkscape:pageopacity="0"
     inkscape:pageshadow="2"
     inkscape:window-width="1920"
     inkscape:window-height="966"
     id="namedview9766"
     showgrid="false"
     inkscape:zoom="9.8333333"
     inkscape:cx="40.271187"
     inkscape:cy="13.525424"
     inkscape:window-x="1728"
     inkscape:window-y="25"
     inkscape:window-maximized="1"
     inkscape:current-layer="svg9764"
     inkscape:pagecheckerboard="0"
     inkscape:showpageshadow="2"
     inkscape:deskcolor="#d1d1d1" />
  <path
     d="M0 0h24v24H0z"
     fill="none"
     id="path9760" />
  <g
     aria-label="VR"
     id="text1066"
     style="font-size:16.3236px;line-height:1.25;fill:#d9d9d9;stroke-width:0.765171">
    <path
       d="M 11.760885,6.0659572 7.6799844,17.934044 H 5.9742956 L 1.8933955,6.0659572 H 3.5831432 L 6.8669926,15.917505 10.150842,6.0659572 Z"
       style="font-family:Tahoma;-inkscape-font-specification:Tahoma"
       id="path2506" />
    <path
       d="m 22.090663,17.934044 h -2.048421 l -3.76208,-4.718541 h -1.801334 v 4.718541 H 12.900667 V 6.0659572 h 3.060675 q 1.020225,0 1.705689,0.1115871 0.693434,0.1115871 1.315134,0.518083 0.621699,0.3985254 0.980372,1.0281956 0.366644,0.6296701 0.366644,1.5622196 0,1.3071635 -0.661553,2.1839195 -0.661552,0.876756 -1.801334,1.299193 z M 18.679285,9.4056001 q 0,-0.518083 -0.183321,-0.9166084 Q 18.312642,8.0824958 17.930058,7.8274395 17.595296,7.6042653 17.148948,7.5165897 16.702599,7.4209436 16.041047,7.4209436 h -1.562219 v 4.4794254 h 1.386868 q 0.677493,0 1.219488,-0.119557 0.541994,-0.119558 0.924579,-0.494172 0.342732,-0.334761 0.502142,-0.797051 0.16738,-0.462289 0.16738,-1.0839889 z"
       style="font-family:Tahoma;-inkscape-font-specification:Tahoma"
       id="path2508" />
  </g>
</svg>
