<?xml version="1.0" encoding="UTF-8" standalone="no"?>
<svg
   xmlns:dc="http://purl.org/dc/elements/1.1/"
   xmlns:cc="http://creativecommons.org/ns#"
   xmlns:rdf="http://www.w3.org/1999/02/22-rdf-syntax-ns#"
   xmlns:svg="http://www.w3.org/2000/svg"
   xmlns="http://www.w3.org/2000/svg"
   xmlns:sodipodi="http://sodipodi.sourceforge.net/DTD/sodipodi-0.dtd"
   xmlns:inkscape="http://www.inkscape.org/namespaces/inkscape"
   inkscape:version="1.0 (4035a4fb49, 2020-05-01)"
   sodipodi:docname="layer_action_icon.svg"
   id="svg19648"
   version="1.1"
   width="24"
   viewBox="0 0 24 24"
   height="24"
   fill="#000000">
  <metadata
     id="metadata19654">
    <rdf:RDF>
      <cc:Work
         rdf:about="">
        <dc:format>image/svg+xml</dc:format>
        <dc:type
           rdf:resource="http://purl.org/dc/dcmitype/StillImage" />
        <dc:title></dc:title>
      </cc:Work>
    </rdf:RDF>
  </metadata>
  <defs
     id="defs19652" />
  <sodipodi:namedview
     inkscape:document-rotation="0"
     inkscape:current-layer="svg19648"
     inkscape:window-maximized="1"
     inkscape:window-y="-8"
     inkscape:window-x="-8"
     inkscape:cy="10.305996"
     inkscape:cx="21.098245"
     inkscape:zoom="27.812867"
     showgrid="false"
     id="namedview19650"
     inkscape:window-height="1122"
     inkscape:window-width="1920"
     inkscape:pageshadow="2"
     inkscape:pageopacity="0"
     guidetolerance="10"
     gridtolerance="10"
     objecttolerance="10"
     borderopacity="1"
     bordercolor="#666666"
     pagecolor="#ffffff" />
  <rect
     ry="1.646184"
     y="6.7282925"
     x="0.69228369"
     height="10.543415"
     width="22.615433"
     id="rect849"
     style="fill:#531fa7;fill-opacity:1;stroke-width:0.679824" />
  <path
     id="path19646"
     fill="none"
     d="M0 0h24v24H0z" />
  <g
     style="font-style:normal;font-weight:normal;font-size:6.98044px;line-height:1.25;font-family:sans-serif;fill:#ffffff;fill-opacity:1;stroke:none;stroke-width:0.581703"
     id="text860"
     aria-label="Layer">
    <path
       id="path862"
       style="font-style:normal;font-variant:normal;font-weight:bold;font-stretch:normal;font-size:6.98044px;font-family:sans-serif;-inkscape-font-specification:'sans-serif Bold';fill:#ffffff;fill-opacity:1;stroke-width:0.581703"
       d="M 5.1661217,13.835433 H 1.5054807 V 8.7602985 h 1.3088326 v 4.0935105 h 2.3518084 z" />
    <path
       id="path864"
       style="font-style:normal;font-variant:normal;font-weight:bold;font-stretch:normal;font-size:6.98044px;font-family:sans-serif;-inkscape-font-specification:'sans-serif Bold';fill:#ffffff;fill-opacity:1;stroke-width:0.581703"
       d="m 8.1996139,12.836767 v -0.79757 q -0.2488146,0.02045 -0.5385301,0.05794 -0.2897155,0.03408 -0.4396859,0.0818 -0.1840546,0.05794 -0.2828987,0.170421 -0.095436,0.109069 -0.095436,0.289715 0,0.119295 0.02045,0.19428 0.02045,0.07498 0.1022525,0.143154 0.078394,0.06817 0.187463,0.102252 0.1090694,0.03068 0.3408418,0.03068 0.1840546,0 0.3715176,-0.07498 0.1908714,-0.07498 0.334025,-0.197688 z m 0,0.593064 q -0.098844,0.07498 -0.2454061,0.180646 -0.146562,0.105661 -0.2760819,0.167013 -0.1806462,0.0818 -0.374926,0.119295 -0.1942798,0.0409 -0.4260522,0.0409 -0.5453469,0 -0.9134561,-0.337434 -0.3681091,-0.337433 -0.3681091,-0.86233 0,-0.419235 0.187463,-0.685092 0.187463,-0.265856 0.5317132,-0.419235 0.3408418,-0.153379 0.8452877,-0.218139 0.5044458,-0.06476 1.0463843,-0.09544 v -0.02045 q 0,-0.316983 -0.2590398,-0.436278 -0.2590397,-0.122703 -0.7634856,-0.122703 -0.3033492,0 -0.6475994,0.10907 -0.3442503,0.105661 -0.4942207,0.163604 H 5.9296074 v -0.923681 q 0.1942799,-0.05113 0.6305574,-0.119295 0.4396859,-0.071577 0.8793718,-0.071577 1.0463844,0 1.5099292,0.3237998 0.4669533,0.320391 0.4669533,1.008892 v 2.604031 H 8.1996139 Z" />
    <path
       id="path866"
       style="font-style:normal;font-variant:normal;font-weight:bold;font-stretch:normal;font-size:6.98044px;font-family:sans-serif;-inkscape-font-specification:'sans-serif Bold';fill:#ffffff;fill-opacity:1;stroke-width:0.581703"
       d="m 12.272673,12.482291 0.872555,-2.474511 h 1.261115 l -2.126853,5.231921 h -1.329283 l 0.606699,-1.431535 -1.489479,-3.800386 h 1.288382 z" />
    <path
       id="path868"
       style="font-style:normal;font-variant:normal;font-weight:bold;font-stretch:normal;font-size:6.98044px;font-family:sans-serif;-inkscape-font-specification:'sans-serif Bold';fill:#ffffff;fill-opacity:1;stroke-width:0.581703"
       d="m 18.854329,12.148266 h -2.808536 q 0.02727,0.449911 0.340842,0.688501 0.316982,0.238589 0.930498,0.238589 0.388559,0 0.75326,-0.139745 0.364701,-0.139745 0.576023,-0.299941 h 0.136336 v 0.985033 q -0.415827,0.167012 -0.783936,0.241997 -0.368109,0.07499 -0.814612,0.07499 -1.152045,0 -1.76556,-0.51808 -0.613515,-0.51808 -0.613515,-1.475845 0,-0.94754 0.579431,-1.499704 0.582839,-0.5555721 1.595139,-0.5555721 0.933907,0 1.404268,0.4737701 0.470362,0.470362 0.470362,1.35655 z M 17.634116,11.42909 q -0.01023,-0.385151 -0.190872,-0.579431 -0.180646,-0.19428 -0.562389,-0.19428 -0.354475,0 -0.582839,0.184055 -0.228364,0.184054 -0.255632,0.589656 z" />
    <path
       id="path870"
       style="font-style:normal;font-variant:normal;font-weight:bold;font-stretch:normal;font-size:6.98044px;font-family:sans-serif;-inkscape-font-specification:'sans-serif Bold';fill:#ffffff;fill-opacity:1;stroke-width:0.581703"
       d="m 22.49452,11.176867 h -0.10907 q -0.07839,-0.02727 -0.252223,-0.0409 -0.173829,-0.01363 -0.289715,-0.01363 -0.262448,0 -0.463545,0.03408 -0.201097,0.03408 -0.432869,0.115887 v 2.56313 H 19.720067 V 10.00778 h 1.227031 v 0.562389 q 0.405602,-0.347659 0.705542,-0.460137 0.299941,-0.1158861 0.552164,-0.1158861 0.06476,0 0.146562,0.00341 0.0818,0.00341 0.143154,0.010226 z" />
  </g>
</svg>
